<?xml version="1.0" standalone="no"?>
<!DOCTYPE svg PUBLIC "-//W3C//DTD SVG 20010904//EN"
 "http://www.w3.org/TR/2001/REC-SVG-20010904/DTD/svg10.dtd">
<svg version="1.0" xmlns="http://www.w3.org/2000/svg"
 width="582.000000pt" height="582.000000pt" viewBox="0 0 582.000000 582.000000"
 preserveAspectRatio="xMidYMid meet">
<metadata>
Created by potrace 1.14, written by Peter Selinger 2001-2017
</metadata>
<g transform="translate(0.000000,582.000000) scale(0.100000,-0.100000)"
fill="#000000" stroke="none">
<path d="M2795 5749 c-1010 -46 -1941 -654 -2399 -1567 -142 -283 -226 -548
-278 -875 -30 -190 -33 -606 -5 -792 67 -453 213 -837 457 -1202 450 -677
1148 -1119 1970 -1248 160 -26 549 -31 724 -11 467 54 890 209 1274 467 948
636 1425 1753 1227 2876 -154 877 -726 1645 -1525 2050 -445 226 -921 325
-1445 302z m436 -209 c413 -42 843 -198 1198 -435 303 -203 592 -502 786 -815
292 -472 435 -1072 385 -1615 -34 -359 -113 -643 -270 -960 -136 -275 -286
-483 -510 -706 -428 -424 -972 -686 -1570 -755 -178 -20 -528 -15 -690 11
-580 90 -1084 346 -1490 754 -221 222 -369 429 -506 706 -127 259 -207 517
-251 810 -24 168 -24 552 0 720 62 413 199 775 422 1110 435 654 1136 1084
1915 1174 108 12 460 13 581 1z"/>
<path d="M3705 4606 c-57 -18 -82 -33 -132 -79 -56 -52 -81 -101 -138 -273
-73 -222 -190 -402 -307 -472 -47 -28 -71 -35 -154 -43 -177 -19 -236 -34
-386 -102 -224 -101 -433 -168 -678 -217 -107 -22 -140 -33 -129 -44 5 -5 397
38 449 49 l25 5 -26 -14 c-47 -27 -256 -94 -355 -115 -141 -29 -250 -40 -402
-43 -129 -2 -132 -3 -110 -20 39 -29 179 -95 256 -119 83 -27 97 -43 20 -24
-109 26 -268 58 -273 54 -2 -3 50 -29 116 -58 66 -30 118 -55 116 -57 -2 -2
-59 -13 -128 -25 -92 -16 -183 -23 -352 -26 -154 -4 -227 -9 -224 -16 2 -6 88
-32 192 -59 103 -26 190 -49 192 -51 1 -2 -67 -25 -152 -52 -85 -27 -155 -52
-155 -57 0 -4 72 -8 160 -8 88 0 160 -3 160 -8 0 -4 -36 -27 -80 -51 -44 -25
-80 -48 -80 -52 0 -3 64 13 142 37 78 23 144 41 146 39 3 -3 -59 -42 -211
-134 -71 -43 -30 -33 90 22 205 95 327 145 373 156 61 13 671 35 784 28 96 -6
323 -50 339 -66 6 -6 5 -43 -3 -94 -10 -75 -9 -99 10 -223 17 -102 21 -158 16
-215 -6 -72 -5 -79 14 -89 12 -6 20 -21 20 -36 0 -62 89 -94 222 -80 84 8 229
76 163 76 -8 0 -26 5 -40 12 l-25 11 26 28 26 27 -43 -4 c-24 -3 -54 -6 -66
-8 -14 -2 -23 3 -25 13 -3 13 -16 16 -63 16 l-60 0 -3 119 c-5 223 39 370 139
460 53 48 85 62 223 96 50 12 106 30 125 40 239 122 362 472 380 1076 5 164
10 236 19 247 23 28 188 86 259 93 56 5 84 1 156 -20 124 -37 132 -35 103 22
-23 43 -58 70 -121 92 -85 29 -135 62 -224 145 -44 41 -96 81 -117 90 -44 18
-143 19 -199 1z m-776 -1928 c17 -6 21 -13 16 -26 -26 -62 -35 -118 -36 -221
-1 -64 -4 -145 -8 -181 -6 -59 -8 -62 -14 -30 -6 34 -37 413 -37 458 0 19 4
22 28 16 15 -4 38 -11 51 -16z"/>
<path d="M1486 1665 c-146 -52 -191 -251 -79 -357 62 -60 184 -79 271 -43 34
14 45 15 57 5 13 -11 15 -3 15 56 l0 69 -21 -43 c-32 -63 -71 -87 -145 -87
-76 0 -123 32 -149 100 -27 69 -17 174 21 227 78 110 219 97 275 -27 l19 -40
0 74 c0 63 -2 72 -13 57 -12 -16 -15 -16 -57 3 -53 24 -137 27 -194 6z"/>
<path d="M2816 1666 c-59 -22 -88 -47 -118 -102 -47 -84 -32 -201 33 -261 62
-57 189 -73 284 -37 l50 20 5 69 c4 62 8 71 30 82 22 11 12 13 -70 11 -52 0
-85 -3 -73 -5 38 -7 47 -28 44 -105 -2 -56 -29 -78 -95 -78 -92 0 -150 59
-163 167 -17 148 88 265 210 232 52 -14 73 -31 103 -89 l23 -45 0 75 c0 66 -1
73 -13 57 -14 -18 -16 -18 -48 -1 -45 23 -152 28 -202 10z"/>
<path d="M3713 1653 c-18 -7 -16 -50 2 -57 36 -14 61 24 33 52 -13 13 -16 13
-35 5z"/>
<path d="M4150 1536 c-43 -45 -44 -46 -18 -46 l26 0 -5 -95 c-7 -117 6 -145
65 -145 21 0 48 7 60 16 27 18 30 39 4 23 -27 -17 -68 -4 -76 23 -3 13 -6 58
-6 101 l0 77 49 0 c45 0 61 10 61 36 0 2 -24 4 -54 4 -51 0 -55 2 -58 26 -3
25 -4 24 -48 -20z"/>
<path d="M2133 1532 c-32 -5 -73 -47 -73 -75 0 -37 32 -69 85 -87 55 -17 71
-36 61 -73 -13 -55 -94 -48 -125 11 -17 30 -20 33 -21 15 0 -28 -47 -44 -61
-22 -5 8 -9 57 -9 110 0 111 -8 125 -66 116 -53 -9 -124 -54 -124 -78 0 -29
44 -22 48 8 4 30 26 45 59 41 25 -3 28 -7 31 -43 2 -39 1 -41 -57 -74 -69 -39
-89 -72 -66 -107 19 -30 63 -32 98 -4 30 24 37 25 37 6 0 -32 71 -35 93 -3 12
17 16 18 16 6 1 -21 77 -41 120 -33 106 21 106 153 0 170 -57 9 -84 34 -75 67
13 55 95 44 121 -16 8 -17 15 -27 16 -22 1 12 -2 69 -5 72 -6 6 -85 18 -103
15z m-193 -184 c-5 -53 -5 -53 -42 -56 -30 -3 -38 1 -43 18 -4 12 -1 28 7 37
13 16 68 53 78 53 3 0 3 -24 0 -52z"/>
<path d="M2355 1508 c-55 -28 -75 -47 -68 -64 10 -26 48 -12 51 18 2 20 10 30
27 34 44 11 60 1 63 -37 3 -35 0 -38 -63 -77 -72 -46 -83 -61 -69 -101 12 -35
65 -41 104 -13 26 20 27 20 38 1 16 -24 64 -25 85 -1 23 25 22 28 -10 27 l-28
0 -3 104 c-1 58 -8 111 -14 118 -15 19 -67 15 -113 -9z m75 -152 c0 -50 -16
-69 -57 -64 -22 2 -29 9 -31 30 -3 22 4 32 35 52 21 14 41 25 46 25 4 1 7 -19
7 -43z"/>
<path d="M3219 1505 c-51 -27 -74 -49 -64 -65 3 -5 15 -10 26 -10 13 0 19 7
19 24 0 32 22 48 62 44 31 -3 33 -5 33 -39 0 -34 -5 -40 -65 -80 -68 -46 -87
-82 -59 -115 16 -20 66 -17 98 5 27 19 27 19 39 0 24 -37 102 -13 102 32 0 12
-2 12 -9 1 -5 -8 -17 -12 -27 -10 -17 3 -20 16 -24 111 -5 115 -11 127 -60
126 -14 0 -46 -11 -71 -24z m81 -149 c0 -50 -16 -69 -57 -64 -22 2 -29 9 -31
30 -3 21 4 32 35 52 21 14 41 26 45 26 5 0 8 -20 8 -44z"/>
<path d="M3396 1519 c21 -11 22 -14 82 -172 20 -53 40 -96 45 -94 6 2 33 58
60 126 44 107 55 125 81 137 30 13 29 13 -34 13 -49 0 -59 -3 -42 -9 12 -5 22
-16 22 -24 0 -13 -57 -166 -64 -174 -4 -4 -66 158 -66 172 0 7 10 18 23 24 18
9 8 11 -53 11 -57 0 -70 -3 -54 -10z"/>
<path d="M3706 1517 c-26 -11 -27 -14 -12 -26 13 -11 16 -34 16 -118 0 -98 -1
-104 -22 -112 -18 -7 -8 -10 40 -12 34 -2 62 -1 62 4 0 4 -7 7 -15 7 -13 0
-15 22 -15 135 0 145 0 145 -54 122z"/>
<path d="M3883 1511 c-41 -26 -63 -69 -63 -123 0 -102 96 -168 186 -128 57 25
84 69 84 138 0 45 -4 57 -33 89 -29 31 -41 37 -88 40 -42 3 -61 0 -86 -16z
m121 -14 c43 -43 46 -159 4 -212 -27 -35 -79 -35 -107 1 -40 51 -35 170 10
215 26 26 65 24 93 -4z"/>
<path d="M4379 1505 c-51 -27 -74 -49 -64 -65 3 -5 15 -10 26 -10 13 0 19 7
19 23 0 30 18 47 50 47 33 0 50 -17 50 -51 0 -22 -9 -32 -47 -54 -27 -15 -58
-37 -70 -48 -25 -22 -30 -66 -11 -85 18 -18 66 -14 97 7 27 19 27 19 39 0 17
-27 67 -25 86 3 20 28 21 44 1 28 -8 -7 -22 -10 -30 -6 -12 4 -15 25 -15 105
0 77 -4 103 -16 115 -22 22 -61 19 -115 -9z m81 -148 c0 -50 -13 -67 -52 -67
-28 0 -49 24 -41 48 5 13 72 62 85 62 5 0 8 -19 8 -43z"/>
<path d="M1605 1090 c0 -27 5 -50 10 -50 6 0 10 23 10 50 0 28 -4 50 -10 50
-5 0 -10 -22 -10 -50z"/>
<path d="M1717 1133 c-16 -15 -6 -44 18 -53 14 -5 25 -17 25 -25 0 -9 5 -13
10 -10 19 12 10 35 -20 50 -19 10 -27 20 -24 30 6 16 2 20 -9 8z"/>
<path d="M1755 1130 c3 -5 8 -10 11 -10 2 0 4 5 4 10 0 6 -5 10 -11 10 -5 0
-7 -4 -4 -10z"/>
<path d="M1855 1090 c0 -27 5 -50 10 -50 6 0 10 23 10 50 0 28 -4 50 -10 50
-5 0 -10 -22 -10 -50z"/>
<path d="M2036 1132 c-3 -6 1 -23 9 -38 8 -16 15 -35 15 -41 0 -7 6 -13 14
-13 12 0 11 9 -6 48 -25 56 -24 56 -32 44z"/>
<path d="M2248 1090 c5 -65 22 -65 22 0 0 33 -4 50 -12 50 -9 0 -12 -15 -10
-50z"/>
<path d="M2289 1132 c8 -6 11 -18 7 -30 -4 -11 -2 -23 4 -27 6 -4 9 -13 6 -21
-3 -8 -1 -14 4 -14 14 0 22 19 13 33 -4 6 -8 23 -8 37 0 17 -6 26 -20 28 -15
2 -17 1 -6 -6z"/>
<path d="M2437 1133 c-8 -12 24 -93 36 -93 9 0 3 24 -18 73 -7 16 -15 25 -18
20z"/>
<path d="M2564 1090 c0 -27 4 -50 8 -50 5 0 8 23 8 50 0 28 -4 50 -8 50 -5 0
-8 -22 -8 -50z"/>
<path d="M2610 1125 c13 -16 13 -19 -2 -28 -14 -10 -15 -13 -1 -34 16 -23 41
-34 26 -11 -4 7 -7 28 -8 47 0 21 -6 36 -15 39 -13 5 -13 3 0 -13z"/>
<path d="M2720 1101 c0 -39 20 -71 43 -71 6 0 3 6 -7 13 -14 10 -17 23 -14 55
2 30 0 42 -9 42 -8 0 -13 -14 -13 -39z"/>
<path d="M2795 1130 c3 -5 8 -10 11 -10 2 0 4 5 4 10 0 6 -5 10 -11 10 -5 0
-7 -4 -4 -10z"/>
<path d="M3078 1129 c-22 -12 -24 -62 -3 -79 14 -11 14 -10 7 11 -11 28 -6 49
16 67 19 14 4 16 -20 1z"/>
<path d="M3130 1136 c0 -2 7 -9 15 -16 9 -7 15 -8 15 -2 0 5 -7 12 -15 16 -8
3 -15 4 -15 2z"/>
<path d="M3237 1122 c-27 -30 -16 -82 17 -82 6 0 5 5 -2 12 -7 7 -12 24 -12
38 0 14 5 31 12 38 7 7 10 12 7 12 -3 0 -13 -8 -22 -18z"/>
<path d="M3296 1115 c14 -21 15 -31 6 -50 -8 -16 -8 -25 -2 -25 6 0 15 12 21
26 7 20 6 32 -6 50 -8 13 -20 24 -25 24 -6 0 -3 -11 6 -25z"/>
<path d="M3405 1090 c0 -65 12 -65 17 0 2 29 -1 50 -7 50 -6 0 -10 -22 -10
-50z"/>
<path d="M3554 1115 c-13 -21 -15 -31 -6 -50 7 -14 17 -25 24 -25 9 0 9 3 0
12 -15 15 -15 51 0 66 6 6 9 14 6 18 -4 3 -14 -6 -24 -21z"/>
<path d="M3613 1122 c20 -22 22 -53 5 -71 -11 -11 -10 -13 2 -9 8 3 19 17 24
31 8 21 6 31 -9 47 -10 11 -23 20 -28 20 -6 0 -3 -8 6 -18z"/>
<path d="M3746 1088 c15 -29 29 -48 31 -41 5 15 -34 93 -47 93 -6 0 2 -24 16
-52z"/>
<path d="M3810 1091 c0 -28 5 -53 10 -56 6 -4 10 15 10 49 0 31 -4 56 -10 56
-5 0 -10 -22 -10 -49z"/>
<path d="M3918 1090 c5 -65 22 -65 22 0 0 33 -4 50 -12 50 -9 0 -12 -15 -10
-50z"/>
<path d="M3965 1111 c0 -14 4 -32 9 -39 4 -8 2 -20 -6 -29 -12 -15 -11 -15 10
-4 24 13 28 26 12 36 -6 3 -7 17 -4 29 3 15 1 25 -8 28 -9 4 -13 -3 -13 -21z"/>
<path d="M4078 1090 c5 -65 22 -65 22 0 0 33 -4 50 -12 50 -9 0 -12 -15 -10
-50z"/>
<path d="M4216 1132 c-3 -6 1 -23 9 -38 8 -16 15 -34 15 -40 0 -7 6 -14 14
-17 10 -4 9 7 -6 46 -23 60 -24 62 -32 49z"/>
<path d="M2006 1064 c-9 -23 -4 -24 17 -2 13 14 14 18 3 18 -8 0 -17 -7 -20
-16z"/>
<path d="M2418 1073 c7 -3 16 -2 19 1 4 3 -2 6 -13 5 -11 0 -14 -3 -6 -6z"/>
<path d="M4198 1073 c7 -3 16 -2 19 1 4 3 -2 6 -13 5 -11 0 -14 -3 -6 -6z"/>
<path d="M1920 1045 c-8 -9 -8 -15 -2 -15 12 0 26 19 19 26 -2 2 -10 -2 -17
-11z"/>
<path d="M2396 1051 c-4 -7 -5 -15 -2 -18 9 -9 19 4 14 18 -4 11 -6 11 -12 0z"/>
<path d="M3135 1050 c-3 -5 -2 -10 4 -10 5 0 13 5 16 10 3 6 2 10 -4 10 -5 0
-13 -4 -16 -10z"/>
<path d="M3470 1050 c-8 -5 -12 -12 -9 -15 4 -3 12 1 19 10 14 17 11 19 -10 5z"/>
<path d="M4181 1044 c0 -11 3 -14 6 -6 3 7 2 16 -1 19 -3 4 -6 -2 -5 -13z"/>
<path d="M2880 1046 c0 -2 7 -6 15 -10 8 -3 15 -1 15 4 0 6 -7 10 -15 10 -8 0
-15 -2 -15 -4z"/>
<path d="M3725 1040 c3 -5 8 -10 11 -10 2 0 4 5 4 10 0 6 -5 10 -11 10 -5 0
-7 -4 -4 -10z"/>
</g>
</svg>
